<svg width="182" height="40" viewBox="0 0 182 40" fill="none" xmlns="http://www.w3.org/2000/svg">
    <g clip-path="url(#clip0_3829_65055)">
        <path d="M72.9004 15.4727C72.7409 15.5694 72.5511 15.603 72.3682 15.5669C72.1852 15.5309 72.0224 15.4277 71.9115 15.2777C71.3669 14.4958 70.6361 13.8619 69.7851 13.4331C68.934 13.0044 67.9896 12.7944 67.0371 12.822C63.3233 12.822 61.0439 15.7605 61.0439 19.9572C61.0439 24.1539 63.3651 27.1483 67.0789 27.1483C68.0441 27.1713 68.9993 26.9476 69.8539 26.4984C70.7085 26.0491 71.4343 25.3892 71.9626 24.581C72.0682 24.429 72.227 24.3223 72.4076 24.2819C72.5881 24.2415 72.7773 24.2704 72.9376 24.3629L74.7017 25.3842C74.798 25.433 74.8827 25.502 74.95 25.5865C75.0173 25.6711 75.0655 25.7691 75.0915 25.8739C75.1175 25.9788 75.1206 26.088 75.1006 26.1941C75.0805 26.3003 75.0379 26.4008 74.9755 26.489C74.1131 27.7817 72.9366 28.8342 71.5562 29.5479C70.1759 30.2616 68.6369 30.6131 67.0836 30.5696C61.146 30.5696 57.1211 26.2617 57.1211 19.9806C57.1211 13.6996 61.146 9.44696 66.9954 9.44696C68.5228 9.40456 70.0374 9.73698 71.4066 10.4151C72.7759 11.0933 73.9582 12.0966 74.8502 13.3372C74.9116 13.4208 74.9551 13.516 74.9781 13.6171C75.0011 13.7182 75.0031 13.8229 74.984 13.9247C74.9648 14.0266 74.9249 14.1234 74.8668 14.2093C74.8086 14.2951 74.7334 14.368 74.6459 14.4235L72.9004 15.4727Z" fill="white"/>
        <path fill-rule="evenodd" clip-rule="evenodd" d="M85.8823 28.5793V29.4334C85.8822 29.5337 85.9025 29.633 85.9418 29.7253C85.9812 29.8176 86.0388 29.9009 86.1113 29.9703C86.1837 30.0397 86.2695 30.0938 86.3634 30.1292C86.4572 30.1645 86.5573 30.1805 86.6575 30.1762H88.598C88.6956 30.1762 88.7922 30.157 88.8823 30.1197C88.9724 30.0823 89.0543 30.0276 89.1233 29.9586C89.1922 29.8897 89.247 29.8078 89.2843 29.7177C89.3216 29.6275 89.3408 29.5309 89.3408 29.4334V19.7309C89.3408 16.2167 86.8433 14.7637 83.3058 14.7637C81.3174 14.7683 79.3602 15.2591 77.605 16.1935C77.4374 16.2869 77.3121 16.4411 77.2551 16.6243C77.198 16.8075 77.2136 17.0056 77.2986 17.1776L77.9346 18.5053C77.9782 18.5945 78.0395 18.6738 78.1147 18.7386C78.1899 18.8033 78.2774 18.8522 78.372 18.8821C78.4666 18.9121 78.5663 18.9225 78.6651 18.9128C78.7639 18.9031 78.8596 18.8735 78.9466 18.8258C80.1999 18.1745 81.5872 17.8233 82.9994 17.7997C84.2297 17.7997 85.6827 18.1389 85.6827 19.3968C85.6827 20.7127 84.0931 20.9371 82.1319 21.2139C81.9739 21.2361 81.8158 21.2587 81.6578 21.2815C79.6338 21.5647 76.3516 22.1961 76.3516 25.8774C76.3516 28.8346 78.4917 30.5198 81.5743 30.5198C83.6587 30.5198 84.9539 29.777 85.8823 28.5793ZM82.8399 23.5762C84.0122 23.3703 85.0754 23.1839 85.6827 22.7253V24.4524C85.6827 26.7085 84.0579 27.6787 82.3169 27.6787C80.915 27.6787 79.9448 27.0519 79.9448 25.7103C79.9448 24.2526 81.0589 23.8951 82.4006 23.6538C82.5482 23.6272 82.6948 23.6014 82.8399 23.576V23.5762Z" fill="white"/>
        <path d="M92.5299 26.333C92.6551 26.1872 92.8319 26.0956 93.0233 26.0774C93.2146 26.0593 93.4055 26.116 93.5559 26.2356C94.7971 27.1729 96.3184 27.6636 97.8733 27.6282C99.4748 27.6282 100.659 27.113 100.659 25.8595C100.659 24.7175 99.5724 24.49 96.9448 24.0304C94.1594 23.5661 91.4947 22.6377 91.4947 19.4624C91.4947 16.1523 94.3498 14.7552 97.604 14.7552C99.6447 14.725 101.637 15.3786 103.263 16.6119C103.342 16.674 103.408 16.7517 103.457 16.8401C103.505 16.9285 103.535 17.0258 103.544 17.1262C103.554 17.2265 103.543 17.3277 103.512 17.4237C103.481 17.5196 103.431 17.6083 103.365 17.6843L102.437 18.7753C102.314 18.9216 102.139 19.0152 101.949 19.0368C101.759 19.0584 101.568 19.0064 101.415 18.8914C100.271 18.0546 98.8867 17.6115 97.4694 17.6286C96.0999 17.6286 94.9022 18.028 94.9022 19.1096C94.9022 20.312 96.5827 20.5394 98.2678 20.8272C101.866 21.454 104.15 22.4799 104.15 25.4696C104.15 28.6078 101.638 30.5483 97.6505 30.5483C95.4709 30.6149 93.3365 29.9187 91.6154 28.5799C91.5382 28.5167 91.4744 28.4387 91.4276 28.3506C91.3808 28.2624 91.352 28.1659 91.343 28.0665C91.3339 27.9671 91.3447 27.8669 91.3747 27.7718C91.4047 27.6766 91.4534 27.5884 91.5179 27.5122L92.5299 26.333ZM106.355 29.434V10.5397C106.355 10.4421 106.374 10.3456 106.411 10.2554C106.449 10.1653 106.503 10.0834 106.572 10.0144C106.641 9.94547 106.723 9.89075 106.813 9.85342C106.903 9.81609 107 9.79687 107.097 9.79688H109.238C109.648 9.79688 109.98 10.1295 109.98 10.5397V16.9926C110.513 16.2815 111.208 15.7082 112.008 15.3206C112.807 14.9329 113.688 14.7421 114.576 14.7641C117.742 14.7641 119.599 17.0203 119.599 20.2422V29.434C119.599 29.5315 119.58 29.6281 119.543 29.7182C119.505 29.8084 119.451 29.8902 119.382 29.9592C119.313 30.0282 119.231 30.0829 119.141 30.1202C119.051 30.1576 118.954 30.1768 118.857 30.1768H116.716C116.519 30.1768 116.33 30.0985 116.191 29.9592C116.052 29.8199 115.974 29.631 115.974 29.434V21.0778C115.974 19.4762 115.458 18.0232 113.406 18.0232C111.461 18.0232 109.98 19.3928 109.98 21.6766V29.4386C109.98 29.6356 109.902 29.8245 109.763 29.9638C109.624 30.1031 109.435 30.1814 109.238 30.1814H107.097C106.999 30.182 106.902 30.163 106.811 30.1256C106.721 30.0882 106.638 30.0331 106.569 29.9635C106.5 29.8939 106.446 29.8113 106.409 29.7203C106.372 29.6294 106.354 29.5321 106.355 29.434V29.434Z" fill="white"/>
        <path fill-rule="evenodd" clip-rule="evenodd" d="M141.607 25.1249L143.148 29.6745C143.194 29.8225 143.286 29.9522 143.41 30.0455C143.534 30.1387 143.684 30.1908 143.839 30.1944H146.491C146.61 30.1949 146.728 30.1665 146.835 30.1114C146.941 30.0564 147.032 29.9765 147.101 29.8785C147.17 29.7805 147.214 29.6673 147.23 29.5485C147.246 29.4297 147.232 29.3088 147.191 29.1963L140.204 10.302C140.151 10.1593 140.055 10.0363 139.93 9.94926C139.805 9.86221 139.656 9.81521 139.504 9.8145H136.073C135.924 9.81274 135.777 9.85613 135.653 9.93897C135.529 10.0218 135.432 10.1403 135.377 10.2788L128.362 29.1777C128.321 29.2898 128.307 29.4102 128.323 29.5286C128.338 29.6471 128.382 29.76 128.45 29.858C128.518 29.9559 128.609 30.0359 128.715 30.0913C128.821 30.1466 128.939 30.1756 129.058 30.1758H131.569C131.724 30.1763 131.875 30.1282 132.001 30.0383C132.127 29.9483 132.221 29.821 132.271 29.6745L133.816 25.1249H141.607ZM134.755 21.9543L137.753 13.106L140.636 21.9543H134.755ZM152.571 17.0195V15.8496C152.577 15.7489 152.561 15.6482 152.526 15.5538C152.491 15.4593 152.437 15.373 152.367 15.3003C152.298 15.2274 152.214 15.1693 152.122 15.1297C152.029 15.0901 151.93 15.0697 151.829 15.0698H149.688C149.278 15.0698 148.946 15.4024 148.946 15.8125V34.3818C148.946 34.792 149.278 35.1246 149.688 35.1246H151.829C152.239 35.1246 152.571 34.792 152.571 34.3818V28.2215C153.095 28.9573 153.794 29.5514 154.604 29.9501C155.415 30.3488 156.312 30.5396 157.214 30.5054C161.322 30.5054 163.977 27.0657 163.977 22.6135C163.977 18.1616 161.322 14.7633 157.214 14.7633C156.314 14.7269 155.419 14.9138 154.609 15.3075C153.799 15.7012 153.099 16.2894 152.571 17.0195V17.0195ZM160.166 22.6135C160.166 25.2087 158.964 27.3535 156.452 27.3535C153.895 27.3535 152.571 25.2132 152.571 22.6135C152.571 20.0138 153.964 17.9294 156.452 17.9294C158.94 17.9294 160.166 20.0185 160.166 22.6135ZM169.841 17.0193V15.8494C169.846 15.7487 169.832 15.6479 169.797 15.5531C169.762 15.4584 169.708 15.3718 169.639 15.2986C169.569 15.2255 169.485 15.1675 169.392 15.1281C169.299 15.0887 169.199 15.0688 169.098 15.0696H166.957C166.761 15.0696 166.572 15.1479 166.432 15.2872C166.293 15.4264 166.215 15.6153 166.215 15.8122V34.3818C166.215 34.7919 166.548 35.1244 166.957 35.1244H169.098C169.508 35.1244 169.841 34.7919 169.841 34.3817V28.2212C170.365 28.9564 171.064 29.5499 171.874 29.9486C172.685 30.3472 173.581 30.5385 174.484 30.5053C178.596 30.5053 181.252 27.0653 181.252 22.6133C181.252 18.1614 178.596 14.7632 174.484 14.7632C173.584 14.7275 172.689 14.9148 171.879 15.3085C171.069 15.7021 170.369 16.2898 169.841 17.0193V17.0193ZM177.44 22.6133C177.44 25.2084 176.238 27.3532 173.727 27.3532C171.183 27.3532 169.841 25.213 169.841 22.6133C169.841 20.0136 171.238 17.9292 173.727 17.9292C176.215 17.9292 177.44 20.0182 177.44 22.6133Z" fill="white"/>
        <path fill-rule="evenodd" clip-rule="evenodd" d="M34.6111 0.622577C32.4246 -0.0644531 30.433 -0.0644531 26.3848 -0.0644531H14.2406C10.2156 -0.0644531 8.20088 -0.0644531 6.05141 0.603983C4.87799 1.02889 3.81233 1.70656 2.92987 2.58902C2.04742 3.47147 1.36975 4.53713 0.944842 5.71055C0.257812 7.88346 0.257812 9.89335 0.257812 13.9184V26.0626C0.257812 30.1106 0.257812 32.1022 0.926249 34.2703C1.35117 35.4437 2.02885 36.5093 2.9113 37.3918C3.79375 38.2742 4.85941 38.9519 6.03282 39.3768C8.2056 40.0639 10.2156 40.0639 14.2405 40.0639H26.4034C30.433 40.0639 32.4431 40.0639 34.6111 39.3768C35.7845 38.9519 36.8502 38.2742 37.7326 37.3918C38.6151 36.5093 39.2928 35.4437 39.7177 34.2703C40.4047 32.0976 40.4047 30.0876 40.4047 26.0626V13.9368C40.4047 9.90736 40.4047 7.89721 39.7177 5.72914C39.2928 4.55573 38.6151 3.49008 37.7326 2.60763C36.8502 1.72517 35.7845 1.0475 34.6111 0.622577ZM26.7199 15.0659C25.2145 13.7919 23.307 13.0914 21.3348 13.0883C19.7099 13.0883 18.0851 13.6269 18.0851 15.1217C18.0851 16.4843 19.5319 17.0176 21.3139 17.6745C21.4867 17.7382 21.6627 17.803 21.8408 17.8699C25.3643 19.0584 28.2657 20.516 28.2657 23.9699C28.2657 27.721 25.355 30.2835 20.592 30.576L20.1603 32.5861C20.1209 32.7683 20.02 32.9314 19.8746 33.0481C19.7292 33.1647 19.5481 33.2278 19.3617 33.2268H16.3674C16.2464 33.2239 16.1276 33.1944 16.0192 33.1405C15.9108 33.0866 15.8156 33.0095 15.7404 32.9147C15.6651 32.8199 15.6115 32.7098 15.5835 32.592C15.5555 32.4743 15.5537 32.3518 15.5783 32.2333L16.0425 30.1117C14.2446 29.6532 12.5918 28.7478 11.2377 27.4794C11.1601 27.4045 11.0983 27.3148 11.0561 27.2155C11.0139 27.1161 10.9922 27.0094 10.9922 26.9015C10.9922 26.7936 11.0139 26.6868 11.0561 26.5875C11.0983 26.4882 11.1601 26.3984 11.2377 26.3235L12.8997 24.699C13.0508 24.5504 13.2542 24.4671 13.4661 24.4671C13.678 24.4671 13.8814 24.5504 14.0324 24.699C15.5549 26.1515 17.5875 26.9468 19.6914 26.9131C21.8594 26.9131 23.331 25.9939 23.331 24.5364C23.331 23.2185 22.1241 22.777 19.8341 21.9394C19.5913 21.8506 19.3363 21.7573 19.0693 21.6581C16.1261 20.6089 13.3407 19.1094 13.3407 15.623C13.3407 11.5888 16.711 9.62059 20.6849 9.4255L21.1027 7.37828C21.1428 7.19773 21.2434 7.03627 21.3877 6.92061C21.5321 6.80496 21.7116 6.74201 21.8965 6.74219H24.8815C25.0016 6.74187 25.1202 6.7683 25.2288 6.81957C25.3373 6.87084 25.4331 6.94565 25.5091 7.03857C25.5852 7.13149 25.6395 7.24018 25.6683 7.35675C25.6971 7.47331 25.6995 7.59482 25.6754 7.71244L25.2111 10.0012C26.7308 10.4979 28.1389 11.2863 29.3567 12.3222C29.4398 12.3936 29.5072 12.4814 29.5547 12.5801C29.6022 12.6788 29.6288 12.7863 29.6327 12.8958C29.6366 13.0052 29.6178 13.1143 29.5775 13.2162C29.5372 13.318 29.4763 13.4104 29.3985 13.4876L27.8479 15.0427C27.6984 15.1899 27.4983 15.2742 27.2885 15.2785C27.0788 15.2828 26.8753 15.2068 26.7199 15.0659Z" fill="white"/>
    </g>
    <defs>
        <clipPath id="clip0_3829_65055">
            <rect width="181.176" height="40" fill="white" transform="translate(0.167969)"/>
        </clipPath>
    </defs>
</svg>
