<svg width="160" height="40" viewBox="0 0 160 40" fill="none" xmlns="http://www.w3.org/2000/svg">
    <mask id="path-1-outside-1_4404_70397" maskUnits="userSpaceOnUse" x="29.2539" y="5.39062" width="130" height="26" fill="black">
        <rect fill="white" x="29.2539" y="5.39062" width="130" height="26"/>
        <path d="M42.6065 23.0152C42.6041 23.1542 42.5468 23.2867 42.4471 23.3836C42.3474 23.4806 42.2134 23.5341 42.0743 23.5325H32.2739C32.5252 25.9568 34.3433 28.1741 36.9154 28.1741C38.6745 28.1741 39.9753 27.5089 40.9509 26.1046C40.9963 26.0308 41.0591 25.9693 41.1339 25.9255C41.2086 25.8817 41.293 25.8569 41.3796 25.8533C41.4441 25.8515 41.5084 25.8628 41.5684 25.8867C41.6284 25.9106 41.6829 25.9464 41.7286 25.9921C41.7742 26.0378 41.8101 26.0923 41.834 26.1523C41.8578 26.2123 41.8692 26.2765 41.8674 26.3411C41.8677 26.4303 41.842 26.5176 41.7935 26.5924C40.8031 28.3071 38.8371 29.1497 36.9154 29.1497C33.619 29.1497 31.2539 26.1933 31.2539 23.0447C31.2539 19.8962 33.6042 16.9398 36.9154 16.9398C40.2266 16.9398 42.5917 19.8666 42.6065 23.0152ZM41.5569 22.5569C41.35 20.1327 39.4875 17.9154 36.9154 17.9154C34.3433 17.9154 32.5252 20.1327 32.2739 22.5569H41.5569Z"/>
        <path d="M54.5207 17.1763C54.6489 17.18 54.7708 17.2326 54.8615 17.3233C54.9522 17.414 55.0048 17.5359 55.0085 17.6641C55.0104 17.7286 54.999 17.7929 54.9751 17.8529C54.9513 17.9129 54.9154 17.9674 54.8697 18.0131C54.8241 18.0588 54.7696 18.0946 54.7095 18.1185C54.6495 18.1424 54.5853 18.1537 54.5207 18.1519H51.8895V28.4845C51.8884 28.6135 51.8366 28.7369 51.7454 28.8281C51.6541 28.9194 51.5307 28.9711 51.4017 28.9723C51.2735 28.9686 51.1516 28.916 51.0609 28.8253C50.9702 28.7346 50.9176 28.6127 50.9139 28.4845V18.1519H48.3862C48.3216 18.1537 48.2574 18.1424 48.1974 18.1185C48.1374 18.0946 48.0829 18.0588 48.0372 18.0131C47.9915 17.9674 47.9557 17.9129 47.9318 17.8529C47.9079 17.7929 47.8966 17.7286 47.8984 17.6641C47.8996 17.5351 47.9513 17.4117 48.0426 17.3204C48.1338 17.2292 48.2572 17.1774 48.3862 17.1763H50.9139V13.4069C50.9142 13.282 50.959 13.1613 51.0403 13.0664C51.1215 12.9716 51.234 12.9089 51.3574 12.8895C51.4264 12.8804 51.4965 12.8862 51.563 12.9066C51.6295 12.9271 51.6908 12.9616 51.7428 13.0079C51.7947 13.0543 51.836 13.1112 51.8639 13.175C51.8918 13.2387 51.9056 13.3078 51.9043 13.3773V17.1763H54.5207Z"/>
        <path d="M70.5592 22.1726V28.4254C70.5554 28.5536 70.5029 28.6755 70.4122 28.7662C70.3215 28.8569 70.1995 28.9094 70.0714 28.9132C70.0068 28.915 69.9425 28.9036 69.8825 28.8798C69.8225 28.8559 69.768 28.82 69.7223 28.7744C69.6767 28.7287 69.6408 28.6742 69.6169 28.6142C69.5931 28.5542 69.5817 28.4899 69.5835 28.4254V22.1726C69.5835 20.0588 68.3862 17.9597 66.0359 17.9597C63.0204 17.9597 61.7195 20.5909 61.8969 23.296C61.8969 23.3699 61.9265 23.6804 61.9265 23.7247V28.4106C61.9262 28.5355 61.8814 28.6562 61.8002 28.751C61.7189 28.8459 61.6064 28.9086 61.483 28.9279C61.4141 28.9371 61.3439 28.9313 61.2774 28.9108C61.2109 28.8904 61.1496 28.8558 61.0976 28.8095C61.0457 28.7632 61.0044 28.7062 60.9765 28.6425C60.9486 28.5787 60.9349 28.5097 60.9361 28.4401V7.87843C60.9373 7.74941 60.989 7.62601 61.0802 7.53478C61.1715 7.44355 61.2949 7.39178 61.4239 7.39062C61.5521 7.39434 61.674 7.44693 61.7647 7.53762C61.8554 7.62831 61.908 7.75023 61.9117 7.87843V19.4971C62.7543 17.9893 64.262 16.9693 66.0211 16.9693C68.9184 16.9693 70.5592 19.4971 70.5592 22.1726Z"/>
        <path d="M88.1645 23.0152C88.1621 23.1542 88.1049 23.2867 88.0051 23.3836C87.9054 23.4806 87.7714 23.5341 87.6323 23.5325H77.8319C78.0832 25.9568 79.9014 28.1741 82.4734 28.1741C84.2325 28.1741 85.5333 27.5089 86.5089 26.1046C86.5543 26.0308 86.6172 25.9693 86.6919 25.9255C86.7666 25.8817 86.851 25.8569 86.9376 25.8533C87.0021 25.8515 87.0664 25.8628 87.1264 25.8867C87.1864 25.9106 87.2409 25.9464 87.2866 25.9921C87.3323 26.0378 87.3681 26.0923 87.392 26.1523C87.4159 26.2123 87.4272 26.2765 87.4254 26.3411C87.4257 26.4303 87.4 26.5176 87.3515 26.5924C86.3611 28.3071 84.3951 29.1497 82.4734 29.1497C79.177 29.1497 76.8119 26.1933 76.8119 23.0447C76.8119 19.8962 79.1623 16.9398 82.4734 16.9398C85.755 16.9398 88.1497 19.8666 88.1645 23.0152ZM87.1002 22.5569C86.8932 20.1327 85.0307 17.9154 82.4586 17.9154C79.8866 17.9154 78.0684 20.1327 77.8171 22.5569H87.1002Z"/>
        <path d="M100.212 17.6345C100.221 17.7658 100.178 17.8954 100.092 17.9951C100.007 18.0948 99.8847 18.1565 99.7535 18.1667C96.871 18.5954 95.5702 20.9457 95.5702 23.6804V28.3662C95.57 28.4911 95.5252 28.6119 95.4439 28.7067C95.3626 28.8015 95.2502 28.8643 95.1268 28.8836C95.0578 28.8928 94.9877 28.8869 94.9212 28.8665C94.8546 28.846 94.7933 28.8115 94.7414 28.7652C94.6895 28.7189 94.6482 28.6619 94.6203 28.5981C94.5924 28.5344 94.5786 28.4654 94.5798 28.3958V17.7084C94.5801 17.5835 94.6249 17.4628 94.7062 17.368C94.7875 17.2731 94.8999 17.2104 95.0233 17.1911C95.0923 17.1819 95.1624 17.1877 95.2289 17.2082C95.2954 17.2286 95.3568 17.2632 95.4087 17.3095C95.4606 17.3558 95.5019 17.4128 95.5298 17.4765C95.5577 17.5403 95.5715 17.6093 95.5702 17.6789V19.8518C96.3832 18.4771 97.9945 17.1763 99.6796 17.1763C99.9309 17.1763 100.212 17.3537 100.212 17.6345Z"/>
        <path d="M116.324 23.0152C116.322 23.1542 116.265 23.2867 116.165 23.3836C116.065 23.4806 115.931 23.5341 115.792 23.5325H105.992C106.243 25.9568 108.061 28.1741 110.633 28.1741C112.392 28.1741 113.693 27.5089 114.669 26.1046C114.714 26.0308 114.777 25.9693 114.852 25.9255C114.926 25.8817 115.011 25.8569 115.097 25.8533C115.162 25.8515 115.226 25.8628 115.286 25.8867C115.346 25.9106 115.401 25.9464 115.446 25.9921C115.492 26.0378 115.528 26.0923 115.552 26.1523C115.576 26.2123 115.587 26.2765 115.585 26.3411C115.585 26.4303 115.56 26.5176 115.511 26.5924C114.521 28.3071 112.555 29.1497 110.633 29.1497C107.337 29.1497 104.972 26.1933 104.972 23.0447C104.972 19.8962 107.322 16.9398 110.633 16.9398C113.944 16.9398 116.309 19.8666 116.324 23.0152ZM115.275 22.5569C115.068 20.1327 113.205 17.9154 110.633 17.9154C108.061 17.9154 106.243 20.1327 105.992 22.5569H115.275Z"/>
        <path d="M132.17 17.7528V28.4845C132.167 28.6127 132.114 28.7346 132.023 28.8253C131.933 28.916 131.811 28.9686 131.683 28.9723C131.618 28.9741 131.554 28.9628 131.494 28.9389C131.434 28.915 131.379 28.8792 131.334 28.8335C131.288 28.7878 131.252 28.7333 131.228 28.6733C131.204 28.6133 131.193 28.549 131.195 28.4845V26.4446C130.382 28.0558 128.948 29.2236 127.115 29.2236C124.203 29.2236 122.592 26.6959 122.592 24.0203V17.738C122.593 17.609 122.645 17.4856 122.736 17.3944C122.827 17.3031 122.95 17.2514 123.079 17.2502C123.208 17.2539 123.33 17.3065 123.42 17.3972C123.511 17.4879 123.564 17.6098 123.567 17.738V24.0203C123.567 26.1342 124.765 28.2332 127.115 28.2332C130.411 28.2332 131.195 25.1438 131.195 21.7291V17.7232C131.196 17.6441 131.216 17.5665 131.253 17.4967C131.29 17.427 131.344 17.3671 131.409 17.3223C131.474 17.2774 131.549 17.2488 131.628 17.2388C131.706 17.2288 131.786 17.2378 131.86 17.265C131.953 17.3082 132.031 17.377 132.087 17.4635C132.142 17.5499 132.171 17.6503 132.17 17.7528Z"/>
        <path d="M156.989 22.1282V28.4106C156.986 28.5388 156.933 28.6607 156.842 28.7514C156.752 28.8421 156.63 28.8947 156.501 28.8984C156.437 28.9002 156.373 28.8889 156.313 28.865C156.253 28.8411 156.198 28.8053 156.152 28.7596C156.107 28.7139 156.071 28.6594 156.047 28.5994C156.023 28.5394 156.012 28.4751 156.014 28.4106V22.1282C156.014 20.0144 154.816 17.945 152.466 17.945C149.51 17.945 148.386 21.1083 148.386 23.5621V28.4106C148.382 28.5388 148.33 28.6607 148.239 28.7514C148.149 28.8421 148.027 28.8947 147.898 28.8984C147.834 28.9002 147.77 28.8889 147.71 28.865C147.65 28.8411 147.595 28.8053 147.549 28.7596C147.504 28.7139 147.468 28.6594 147.444 28.5994C147.42 28.5394 147.409 28.4751 147.411 28.4106V22.1282C147.411 20.0144 146.213 17.945 143.863 17.945C140.877 17.945 139.65 20.2953 139.754 23.4291C139.754 23.503 139.783 23.636 139.754 23.6804V28.3958C139.753 28.5207 139.708 28.6414 139.627 28.7363C139.546 28.8311 139.433 28.8938 139.31 28.9132C139.241 28.9223 139.171 28.9165 139.104 28.8961C139.038 28.8756 138.977 28.8411 138.925 28.7947C138.873 28.7484 138.831 28.6914 138.804 28.6277C138.776 28.5639 138.762 28.4949 138.763 28.4254V17.7084C138.763 17.5835 138.808 17.4628 138.889 17.368C138.971 17.2732 139.083 17.2104 139.207 17.1911C139.276 17.1819 139.346 17.1877 139.412 17.2082C139.479 17.2286 139.54 17.2632 139.592 17.3095C139.644 17.3558 139.685 17.4128 139.713 17.4765C139.741 17.5403 139.755 17.6093 139.754 17.6789V19.4675C140.596 17.9597 142.104 16.9693 143.863 16.9693C145.858 16.9693 147.411 18.2406 148.046 20.0883C148.859 18.2554 150.441 16.9693 152.466 16.9693C155.349 16.9693 156.989 19.4675 156.989 22.1282Z"/>
    </mask>
    <path d="M42.6065 23.0152C42.6041 23.1542 42.5468 23.2867 42.4471 23.3836C42.3474 23.4806 42.2134 23.5341 42.0743 23.5325H32.2739C32.5252 25.9568 34.3433 28.1741 36.9154 28.1741C38.6745 28.1741 39.9753 27.5089 40.9509 26.1046C40.9963 26.0308 41.0591 25.9693 41.1339 25.9255C41.2086 25.8817 41.293 25.8569 41.3796 25.8533C41.4441 25.8515 41.5084 25.8628 41.5684 25.8867C41.6284 25.9106 41.6829 25.9464 41.7286 25.9921C41.7742 26.0378 41.8101 26.0923 41.834 26.1523C41.8578 26.2123 41.8692 26.2765 41.8674 26.3411C41.8677 26.4303 41.842 26.5176 41.7935 26.5924C40.8031 28.3071 38.8371 29.1497 36.9154 29.1497C33.619 29.1497 31.2539 26.1933 31.2539 23.0447C31.2539 19.8962 33.6042 16.9398 36.9154 16.9398C40.2266 16.9398 42.5917 19.8666 42.6065 23.0152ZM41.5569 22.5569C41.35 20.1327 39.4875 17.9154 36.9154 17.9154C34.3433 17.9154 32.5252 20.1327 32.2739 22.5569H41.5569Z" fill="white"/>
    <path d="M54.5207 17.1763C54.6489 17.18 54.7708 17.2326 54.8615 17.3233C54.9522 17.414 55.0048 17.5359 55.0085 17.6641C55.0104 17.7286 54.999 17.7929 54.9751 17.8529C54.9513 17.9129 54.9154 17.9674 54.8697 18.0131C54.8241 18.0588 54.7696 18.0946 54.7095 18.1185C54.6495 18.1424 54.5853 18.1537 54.5207 18.1519H51.8895V28.4845C51.8884 28.6135 51.8366 28.7369 51.7454 28.8281C51.6541 28.9194 51.5307 28.9711 51.4017 28.9723C51.2735 28.9686 51.1516 28.916 51.0609 28.8253C50.9702 28.7346 50.9176 28.6127 50.9139 28.4845V18.1519H48.3862C48.3216 18.1537 48.2574 18.1424 48.1974 18.1185C48.1374 18.0946 48.0829 18.0588 48.0372 18.0131C47.9915 17.9674 47.9557 17.9129 47.9318 17.8529C47.9079 17.7929 47.8966 17.7286 47.8984 17.6641C47.8996 17.5351 47.9513 17.4117 48.0426 17.3204C48.1338 17.2292 48.2572 17.1774 48.3862 17.1763H50.9139V13.4069C50.9142 13.282 50.959 13.1613 51.0403 13.0664C51.1215 12.9716 51.234 12.9089 51.3574 12.8895C51.4264 12.8804 51.4965 12.8862 51.563 12.9066C51.6295 12.9271 51.6908 12.9616 51.7428 13.0079C51.7947 13.0543 51.836 13.1112 51.8639 13.175C51.8918 13.2387 51.9056 13.3078 51.9043 13.3773V17.1763H54.5207Z" fill="white"/>
    <path d="M70.5592 22.1726V28.4254C70.5554 28.5536 70.5029 28.6755 70.4122 28.7662C70.3215 28.8569 70.1995 28.9094 70.0714 28.9132C70.0068 28.915 69.9425 28.9036 69.8825 28.8798C69.8225 28.8559 69.768 28.82 69.7223 28.7744C69.6767 28.7287 69.6408 28.6742 69.6169 28.6142C69.5931 28.5542 69.5817 28.4899 69.5835 28.4254V22.1726C69.5835 20.0588 68.3862 17.9597 66.0359 17.9597C63.0204 17.9597 61.7195 20.5909 61.8969 23.296C61.8969 23.3699 61.9265 23.6804 61.9265 23.7247V28.4106C61.9262 28.5355 61.8814 28.6562 61.8002 28.751C61.7189 28.8459 61.6064 28.9086 61.483 28.9279C61.4141 28.9371 61.3439 28.9313 61.2774 28.9108C61.2109 28.8904 61.1496 28.8558 61.0976 28.8095C61.0457 28.7632 61.0044 28.7062 60.9765 28.6425C60.9486 28.5787 60.9349 28.5097 60.9361 28.4401V7.87843C60.9373 7.74941 60.989 7.62601 61.0802 7.53478C61.1715 7.44355 61.2949 7.39178 61.4239 7.39062C61.5521 7.39434 61.674 7.44693 61.7647 7.53762C61.8554 7.62831 61.908 7.75023 61.9117 7.87843V19.4971C62.7543 17.9893 64.262 16.9693 66.0211 16.9693C68.9184 16.9693 70.5592 19.4971 70.5592 22.1726Z" fill="white"/>
    <path d="M88.1645 23.0152C88.1621 23.1542 88.1049 23.2867 88.0051 23.3836C87.9054 23.4806 87.7714 23.5341 87.6323 23.5325H77.8319C78.0832 25.9568 79.9014 28.1741 82.4734 28.1741C84.2325 28.1741 85.5333 27.5089 86.5089 26.1046C86.5543 26.0308 86.6172 25.9693 86.6919 25.9255C86.7666 25.8817 86.851 25.8569 86.9376 25.8533C87.0021 25.8515 87.0664 25.8628 87.1264 25.8867C87.1864 25.9106 87.2409 25.9464 87.2866 25.9921C87.3323 26.0378 87.3681 26.0923 87.392 26.1523C87.4159 26.2123 87.4272 26.2765 87.4254 26.3411C87.4257 26.4303 87.4 26.5176 87.3515 26.5924C86.3611 28.3071 84.3951 29.1497 82.4734 29.1497C79.177 29.1497 76.8119 26.1933 76.8119 23.0447C76.8119 19.8962 79.1623 16.9398 82.4734 16.9398C85.755 16.9398 88.1497 19.8666 88.1645 23.0152ZM87.1002 22.5569C86.8932 20.1327 85.0307 17.9154 82.4586 17.9154C79.8866 17.9154 78.0684 20.1327 77.8171 22.5569H87.1002Z" fill="white"/>
    <path d="M100.212 17.6345C100.221 17.7658 100.178 17.8954 100.092 17.9951C100.007 18.0948 99.8847 18.1565 99.7535 18.1667C96.871 18.5954 95.5702 20.9457 95.5702 23.6804V28.3662C95.57 28.4911 95.5252 28.6119 95.4439 28.7067C95.3626 28.8015 95.2502 28.8643 95.1268 28.8836C95.0578 28.8928 94.9877 28.8869 94.9212 28.8665C94.8546 28.846 94.7933 28.8115 94.7414 28.7652C94.6895 28.7189 94.6482 28.6619 94.6203 28.5981C94.5924 28.5344 94.5786 28.4654 94.5798 28.3958V17.7084C94.5801 17.5835 94.6249 17.4628 94.7062 17.368C94.7875 17.2731 94.8999 17.2104 95.0233 17.1911C95.0923 17.1819 95.1624 17.1877 95.2289 17.2082C95.2954 17.2286 95.3568 17.2632 95.4087 17.3095C95.4606 17.3558 95.5019 17.4128 95.5298 17.4765C95.5577 17.5403 95.5715 17.6093 95.5702 17.6789V19.8518C96.3832 18.4771 97.9945 17.1763 99.6796 17.1763C99.9309 17.1763 100.212 17.3537 100.212 17.6345Z" fill="white"/>
    <path d="M116.324 23.0152C116.322 23.1542 116.265 23.2867 116.165 23.3836C116.065 23.4806 115.931 23.5341 115.792 23.5325H105.992C106.243 25.9568 108.061 28.1741 110.633 28.1741C112.392 28.1741 113.693 27.5089 114.669 26.1046C114.714 26.0308 114.777 25.9693 114.852 25.9255C114.926 25.8817 115.011 25.8569 115.097 25.8533C115.162 25.8515 115.226 25.8628 115.286 25.8867C115.346 25.9106 115.401 25.9464 115.446 25.9921C115.492 26.0378 115.528 26.0923 115.552 26.1523C115.576 26.2123 115.587 26.2765 115.585 26.3411C115.585 26.4303 115.56 26.5176 115.511 26.5924C114.521 28.3071 112.555 29.1497 110.633 29.1497C107.337 29.1497 104.972 26.1933 104.972 23.0447C104.972 19.8962 107.322 16.9398 110.633 16.9398C113.944 16.9398 116.309 19.8666 116.324 23.0152ZM115.275 22.5569C115.068 20.1327 113.205 17.9154 110.633 17.9154C108.061 17.9154 106.243 20.1327 105.992 22.5569H115.275Z" fill="white"/>
    <path d="M132.17 17.7528V28.4845C132.167 28.6127 132.114 28.7346 132.023 28.8253C131.933 28.916 131.811 28.9686 131.683 28.9723C131.618 28.9741 131.554 28.9628 131.494 28.9389C131.434 28.915 131.379 28.8792 131.334 28.8335C131.288 28.7878 131.252 28.7333 131.228 28.6733C131.204 28.6133 131.193 28.549 131.195 28.4845V26.4446C130.382 28.0558 128.948 29.2236 127.115 29.2236C124.203 29.2236 122.592 26.6959 122.592 24.0203V17.738C122.593 17.609 122.645 17.4856 122.736 17.3944C122.827 17.3031 122.95 17.2514 123.079 17.2502C123.208 17.2539 123.33 17.3065 123.42 17.3972C123.511 17.4879 123.564 17.6098 123.567 17.738V24.0203C123.567 26.1342 124.765 28.2332 127.115 28.2332C130.411 28.2332 131.195 25.1438 131.195 21.7291V17.7232C131.196 17.6441 131.216 17.5665 131.253 17.4967C131.29 17.427 131.344 17.3671 131.409 17.3223C131.474 17.2774 131.549 17.2488 131.628 17.2388C131.706 17.2288 131.786 17.2378 131.86 17.265C131.953 17.3082 132.031 17.377 132.087 17.4635C132.142 17.5499 132.171 17.6503 132.17 17.7528Z" fill="white"/>
    <path d="M156.989 22.1282V28.4106C156.986 28.5388 156.933 28.6607 156.842 28.7514C156.752 28.8421 156.63 28.8947 156.501 28.8984C156.437 28.9002 156.373 28.8889 156.313 28.865C156.253 28.8411 156.198 28.8053 156.152 28.7596C156.107 28.7139 156.071 28.6594 156.047 28.5994C156.023 28.5394 156.012 28.4751 156.014 28.4106V22.1282C156.014 20.0144 154.816 17.945 152.466 17.945C149.51 17.945 148.386 21.1083 148.386 23.5621V28.4106C148.382 28.5388 148.33 28.6607 148.239 28.7514C148.149 28.8421 148.027 28.8947 147.898 28.8984C147.834 28.9002 147.77 28.8889 147.71 28.865C147.65 28.8411 147.595 28.8053 147.549 28.7596C147.504 28.7139 147.468 28.6594 147.444 28.5994C147.42 28.5394 147.409 28.4751 147.411 28.4106V22.1282C147.411 20.0144 146.213 17.945 143.863 17.945C140.877 17.945 139.65 20.2953 139.754 23.4291C139.754 23.503 139.783 23.636 139.754 23.6804V28.3958C139.753 28.5207 139.708 28.6414 139.627 28.7363C139.546 28.8311 139.433 28.8938 139.31 28.9132C139.241 28.9223 139.171 28.9165 139.104 28.8961C139.038 28.8756 138.977 28.8411 138.925 28.7947C138.873 28.7484 138.831 28.6914 138.804 28.6277C138.776 28.5639 138.762 28.4949 138.763 28.4254V17.7084C138.763 17.5835 138.808 17.4628 138.889 17.368C138.971 17.2732 139.083 17.2104 139.207 17.1911C139.276 17.1819 139.346 17.1877 139.412 17.2082C139.479 17.2286 139.54 17.2632 139.592 17.3095C139.644 17.3558 139.685 17.4128 139.713 17.4765C139.741 17.5403 139.755 17.6093 139.754 17.6789V19.4675C140.596 17.9597 142.104 16.9693 143.863 16.9693C145.858 16.9693 147.411 18.2406 148.046 20.0883C148.859 18.2554 150.441 16.9693 152.466 16.9693C155.349 16.9693 156.989 19.4675 156.989 22.1282Z" fill="white"/>
    <path d="M42.6065 23.0152C42.6041 23.1542 42.5468 23.2867 42.4471 23.3836C42.3474 23.4806 42.2134 23.5341 42.0743 23.5325H32.2739C32.5252 25.9568 34.3433 28.1741 36.9154 28.1741C38.6745 28.1741 39.9753 27.5089 40.9509 26.1046C40.9963 26.0308 41.0591 25.9693 41.1339 25.9255C41.2086 25.8817 41.293 25.8569 41.3796 25.8533C41.4441 25.8515 41.5084 25.8628 41.5684 25.8867C41.6284 25.9106 41.6829 25.9464 41.7286 25.9921C41.7742 26.0378 41.8101 26.0923 41.834 26.1523C41.8578 26.2123 41.8692 26.2765 41.8674 26.3411C41.8677 26.4303 41.842 26.5176 41.7935 26.5924C40.8031 28.3071 38.8371 29.1497 36.9154 29.1497C33.619 29.1497 31.2539 26.1933 31.2539 23.0447C31.2539 19.8962 33.6042 16.9398 36.9154 16.9398C40.2266 16.9398 42.5917 19.8666 42.6065 23.0152ZM41.5569 22.5569C41.35 20.1327 39.4875 17.9154 36.9154 17.9154C34.3433 17.9154 32.5252 20.1327 32.2739 22.5569H41.5569Z" stroke="white" stroke-width="3" mask="url(#path-1-outside-1_4404_70397)"/>
    <path d="M54.5207 17.1763C54.6489 17.18 54.7708 17.2326 54.8615 17.3233C54.9522 17.414 55.0048 17.5359 55.0085 17.6641C55.0104 17.7286 54.999 17.7929 54.9751 17.8529C54.9513 17.9129 54.9154 17.9674 54.8697 18.0131C54.8241 18.0588 54.7696 18.0946 54.7095 18.1185C54.6495 18.1424 54.5853 18.1537 54.5207 18.1519H51.8895V28.4845C51.8884 28.6135 51.8366 28.7369 51.7454 28.8281C51.6541 28.9194 51.5307 28.9711 51.4017 28.9723C51.2735 28.9686 51.1516 28.916 51.0609 28.8253C50.9702 28.7346 50.9176 28.6127 50.9139 28.4845V18.1519H48.3862C48.3216 18.1537 48.2574 18.1424 48.1974 18.1185C48.1374 18.0946 48.0829 18.0588 48.0372 18.0131C47.9915 17.9674 47.9557 17.9129 47.9318 17.8529C47.9079 17.7929 47.8966 17.7286 47.8984 17.6641C47.8996 17.5351 47.9513 17.4117 48.0426 17.3204C48.1338 17.2292 48.2572 17.1774 48.3862 17.1763H50.9139V13.4069C50.9142 13.282 50.959 13.1613 51.0403 13.0664C51.1215 12.9716 51.234 12.9089 51.3574 12.8895C51.4264 12.8804 51.4965 12.8862 51.563 12.9066C51.6295 12.9271 51.6908 12.9616 51.7428 13.0079C51.7947 13.0543 51.836 13.1112 51.8639 13.175C51.8918 13.2387 51.9056 13.3078 51.9043 13.3773V17.1763H54.5207Z" stroke="white" stroke-width="3" mask="url(#path-1-outside-1_4404_70397)"/>
    <path d="M70.5592 22.1726V28.4254C70.5554 28.5536 70.5029 28.6755 70.4122 28.7662C70.3215 28.8569 70.1995 28.9094 70.0714 28.9132C70.0068 28.915 69.9425 28.9036 69.8825 28.8798C69.8225 28.8559 69.768 28.82 69.7223 28.7744C69.6767 28.7287 69.6408 28.6742 69.6169 28.6142C69.5931 28.5542 69.5817 28.4899 69.5835 28.4254V22.1726C69.5835 20.0588 68.3862 17.9597 66.0359 17.9597C63.0204 17.9597 61.7195 20.5909 61.8969 23.296C61.8969 23.3699 61.9265 23.6804 61.9265 23.7247V28.4106C61.9262 28.5355 61.8814 28.6562 61.8002 28.751C61.7189 28.8459 61.6064 28.9086 61.483 28.9279C61.4141 28.9371 61.3439 28.9313 61.2774 28.9108C61.2109 28.8904 61.1496 28.8558 61.0976 28.8095C61.0457 28.7632 61.0044 28.7062 60.9765 28.6425C60.9486 28.5787 60.9349 28.5097 60.9361 28.4401V7.87843C60.9373 7.74941 60.989 7.62601 61.0802 7.53478C61.1715 7.44355 61.2949 7.39178 61.4239 7.39062C61.5521 7.39434 61.674 7.44693 61.7647 7.53762C61.8554 7.62831 61.908 7.75023 61.9117 7.87843V19.4971C62.7543 17.9893 64.262 16.9693 66.0211 16.9693C68.9184 16.9693 70.5592 19.4971 70.5592 22.1726Z" stroke="white" stroke-width="3" mask="url(#path-1-outside-1_4404_70397)"/>
    <path d="M88.1645 23.0152C88.1621 23.1542 88.1049 23.2867 88.0051 23.3836C87.9054 23.4806 87.7714 23.5341 87.6323 23.5325H77.8319C78.0832 25.9568 79.9014 28.1741 82.4734 28.1741C84.2325 28.1741 85.5333 27.5089 86.5089 26.1046C86.5543 26.0308 86.6172 25.9693 86.6919 25.9255C86.7666 25.8817 86.851 25.8569 86.9376 25.8533C87.0021 25.8515 87.0664 25.8628 87.1264 25.8867C87.1864 25.9106 87.2409 25.9464 87.2866 25.9921C87.3323 26.0378 87.3681 26.0923 87.392 26.1523C87.4159 26.2123 87.4272 26.2765 87.4254 26.3411C87.4257 26.4303 87.4 26.5176 87.3515 26.5924C86.3611 28.3071 84.3951 29.1497 82.4734 29.1497C79.177 29.1497 76.8119 26.1933 76.8119 23.0447C76.8119 19.8962 79.1623 16.9398 82.4734 16.9398C85.755 16.9398 88.1497 19.8666 88.1645 23.0152ZM87.1002 22.5569C86.8932 20.1327 85.0307 17.9154 82.4586 17.9154C79.8866 17.9154 78.0684 20.1327 77.8171 22.5569H87.1002Z" stroke="white" stroke-width="3" mask="url(#path-1-outside-1_4404_70397)"/>
    <path d="M100.212 17.6345C100.221 17.7658 100.178 17.8954 100.092 17.9951C100.007 18.0948 99.8847 18.1565 99.7535 18.1667C96.871 18.5954 95.5702 20.9457 95.5702 23.6804V28.3662C95.57 28.4911 95.5252 28.6119 95.4439 28.7067C95.3626 28.8015 95.2502 28.8643 95.1268 28.8836C95.0578 28.8928 94.9877 28.8869 94.9212 28.8665C94.8546 28.846 94.7933 28.8115 94.7414 28.7652C94.6895 28.7189 94.6482 28.6619 94.6203 28.5981C94.5924 28.5344 94.5786 28.4654 94.5798 28.3958V17.7084C94.5801 17.5835 94.6249 17.4628 94.7062 17.368C94.7875 17.2731 94.8999 17.2104 95.0233 17.1911C95.0923 17.1819 95.1624 17.1877 95.2289 17.2082C95.2954 17.2286 95.3568 17.2632 95.4087 17.3095C95.4606 17.3558 95.5019 17.4128 95.5298 17.4765C95.5577 17.5403 95.5715 17.6093 95.5702 17.6789V19.8518C96.3832 18.4771 97.9945 17.1763 99.6796 17.1763C99.9309 17.1763 100.212 17.3537 100.212 17.6345Z" stroke="white" stroke-width="3" mask="url(#path-1-outside-1_4404_70397)"/>
    <path d="M116.324 23.0152C116.322 23.1542 116.265 23.2867 116.165 23.3836C116.065 23.4806 115.931 23.5341 115.792 23.5325H105.992C106.243 25.9568 108.061 28.1741 110.633 28.1741C112.392 28.1741 113.693 27.5089 114.669 26.1046C114.714 26.0308 114.777 25.9693 114.852 25.9255C114.926 25.8817 115.011 25.8569 115.097 25.8533C115.162 25.8515 115.226 25.8628 115.286 25.8867C115.346 25.9106 115.401 25.9464 115.446 25.9921C115.492 26.0378 115.528 26.0923 115.552 26.1523C115.576 26.2123 115.587 26.2765 115.585 26.3411C115.585 26.4303 115.56 26.5176 115.511 26.5924C114.521 28.3071 112.555 29.1497 110.633 29.1497C107.337 29.1497 104.972 26.1933 104.972 23.0447C104.972 19.8962 107.322 16.9398 110.633 16.9398C113.944 16.9398 116.309 19.8666 116.324 23.0152ZM115.275 22.5569C115.068 20.1327 113.205 17.9154 110.633 17.9154C108.061 17.9154 106.243 20.1327 105.992 22.5569H115.275Z" stroke="white" stroke-width="3" mask="url(#path-1-outside-1_4404_70397)"/>
    <path d="M132.17 17.7528V28.4845C132.167 28.6127 132.114 28.7346 132.023 28.8253C131.933 28.916 131.811 28.9686 131.683 28.9723C131.618 28.9741 131.554 28.9628 131.494 28.9389C131.434 28.915 131.379 28.8792 131.334 28.8335C131.288 28.7878 131.252 28.7333 131.228 28.6733C131.204 28.6133 131.193 28.549 131.195 28.4845V26.4446C130.382 28.0558 128.948 29.2236 127.115 29.2236C124.203 29.2236 122.592 26.6959 122.592 24.0203V17.738C122.593 17.609 122.645 17.4856 122.736 17.3944C122.827 17.3031 122.95 17.2514 123.079 17.2502C123.208 17.2539 123.33 17.3065 123.42 17.3972C123.511 17.4879 123.564 17.6098 123.567 17.738V24.0203C123.567 26.1342 124.765 28.2332 127.115 28.2332C130.411 28.2332 131.195 25.1438 131.195 21.7291V17.7232C131.196 17.6441 131.216 17.5665 131.253 17.4967C131.29 17.427 131.344 17.3671 131.409 17.3223C131.474 17.2774 131.549 17.2488 131.628 17.2388C131.706 17.2288 131.786 17.2378 131.86 17.265C131.953 17.3082 132.031 17.377 132.087 17.4635C132.142 17.5499 132.171 17.6503 132.17 17.7528Z" stroke="white" stroke-width="3" mask="url(#path-1-outside-1_4404_70397)"/>
    <path d="M156.989 22.1282V28.4106C156.986 28.5388 156.933 28.6607 156.842 28.7514C156.752 28.8421 156.63 28.8947 156.501 28.8984C156.437 28.9002 156.373 28.8889 156.313 28.865C156.253 28.8411 156.198 28.8053 156.152 28.7596C156.107 28.7139 156.071 28.6594 156.047 28.5994C156.023 28.5394 156.012 28.4751 156.014 28.4106V22.1282C156.014 20.0144 154.816 17.945 152.466 17.945C149.51 17.945 148.386 21.1083 148.386 23.5621V28.4106C148.382 28.5388 148.33 28.6607 148.239 28.7514C148.149 28.8421 148.027 28.8947 147.898 28.8984C147.834 28.9002 147.77 28.8889 147.71 28.865C147.65 28.8411 147.595 28.8053 147.549 28.7596C147.504 28.7139 147.468 28.6594 147.444 28.5994C147.42 28.5394 147.409 28.4751 147.411 28.4106V22.1282C147.411 20.0144 146.213 17.945 143.863 17.945C140.877 17.945 139.65 20.2953 139.754 23.4291C139.754 23.503 139.783 23.636 139.754 23.6804V28.3958C139.753 28.5207 139.708 28.6414 139.627 28.7363C139.546 28.8311 139.433 28.8938 139.31 28.9132C139.241 28.9223 139.171 28.9165 139.104 28.8961C139.038 28.8756 138.977 28.8411 138.925 28.7947C138.873 28.7484 138.831 28.6914 138.804 28.6277C138.776 28.5639 138.762 28.4949 138.763 28.4254V17.7084C138.763 17.5835 138.808 17.4628 138.889 17.368C138.971 17.2732 139.083 17.2104 139.207 17.1911C139.276 17.1819 139.346 17.1877 139.412 17.2082C139.479 17.2286 139.54 17.2632 139.592 17.3095C139.644 17.3558 139.685 17.4128 139.713 17.4765C139.741 17.5403 139.755 17.6093 139.754 17.6789V19.4675C140.596 17.9597 142.104 16.9693 143.863 16.9693C145.858 16.9693 147.411 18.2406 148.046 20.0883C148.859 18.2554 150.441 16.9693 152.466 16.9693C155.349 16.9693 156.989 19.4675 156.989 22.1282Z" stroke="white" stroke-width="3" mask="url(#path-1-outside-1_4404_70397)"/>
    <path opacity="0.6" d="M12.9928 15L1 20.212L12.9928 27L25 20.212L12.9928 15Z" fill="white"/>
    <path opacity="0.8" d="M1 20.1696L13 27V1L1 20.1696Z" fill="white"/>
    <path opacity="0.9" d="M13 1V27L25 20.1696L13 1Z" fill="white"/>
    <path opacity="0.8" d="M1 23L13 39V29.7009L1 23Z" fill="white"/>
    <path opacity="0.9" d="M13 29.7009V39L25 23L13 29.7009Z" fill="white"/>
</svg>
