<svg width="191" height="40" viewBox="0 0 191 40" fill="none" xmlns="http://www.w3.org/2000/svg">
    <path d="M89.003 7.39384C88.6973 7.39384 88.4426 7.49572 88.2516 7.71221C88.0606 7.9287 87.9714 8.19613 87.9714 8.52723V28.8518L72.4732 7.9287C72.2312 7.57213 71.9256 7.39384 71.5563 7.39384C71.1997 7.39384 70.9196 7.49572 70.7158 7.71221C70.512 7.9287 70.4102 8.19613 70.4102 8.52723V31.628C70.4102 31.9846 70.4866 32.2647 70.6521 32.4685C70.8177 32.6722 71.0724 32.7741 71.4289 32.7741C71.7346 32.7741 71.9893 32.6722 72.1803 32.4557C72.3713 32.2393 72.4605 31.9718 72.4605 31.6407V11.2651L87.9969 32.2393C88.2771 32.5958 88.5955 32.7741 88.952 32.7741C89.2831 32.7741 89.5378 32.6722 89.7288 32.4557C89.9199 32.2393 90.009 31.9718 90.009 31.6407V8.52723C90.009 8.17066 89.9199 7.89049 89.7416 7.69947C89.5888 7.49572 89.3341 7.39384 89.003 7.39384ZM170.442 7.21555C163.387 7.21555 157.656 12.9461 157.656 20.0012C157.656 27.0562 163.387 32.7868 170.442 32.7868C177.497 32.7868 183.228 27.0562 183.228 20.0012C183.228 12.9461 177.484 7.21555 170.442 7.21555ZM170.442 30.6983C164.546 30.6983 159.745 25.8973 159.745 20.0012C159.745 14.105 164.546 9.30405 170.442 9.30405C176.338 9.30405 181.139 14.105 181.139 20.0012C181.139 25.8973 176.338 30.6983 170.442 30.6983ZM111.505 8.14519C111.416 7.90323 111.251 7.72494 111.021 7.57213C110.792 7.43204 110.55 7.35564 110.296 7.35564C109.722 7.35564 109.34 7.61033 109.124 8.13246L98.7578 31.4115C98.7069 31.5006 98.6814 31.6407 98.6814 31.8063C98.6814 32.0864 98.7833 32.3157 98.987 32.4939C99.1908 32.6722 99.4328 32.7614 99.7129 32.7614C100.159 32.7614 100.49 32.5322 100.706 32.0864L103.444 25.9101H117.211L119.91 32.0864C119.999 32.3029 120.14 32.4685 120.318 32.5831C120.496 32.6977 120.674 32.7614 120.865 32.7614C121.146 32.7614 121.4 32.6722 121.617 32.4939C121.833 32.3157 121.935 32.0992 121.935 31.8445C121.935 31.7044 121.897 31.5643 121.833 31.4242L111.505 8.14519ZM104.259 23.9999L110.321 10.2719L116.357 23.9999H104.259ZM149.149 7.39384C148.844 7.39384 148.589 7.49572 148.411 7.71221C148.22 7.9287 148.131 8.19613 148.131 8.52723V28.8518L132.62 7.91596C132.378 7.55939 132.072 7.3811 131.703 7.3811C131.346 7.3811 131.066 7.48298 130.862 7.69947C130.658 7.91596 130.557 8.18339 130.557 8.5145V31.6152C130.557 31.9718 130.633 32.252 130.799 32.4557C130.964 32.6595 131.219 32.7614 131.575 32.7614C131.881 32.7614 132.136 32.6595 132.327 32.443C132.518 32.2265 132.607 31.9591 132.607 31.628V11.2651L148.143 32.2393C148.424 32.5958 148.742 32.7741 149.098 32.7741C149.43 32.7741 149.684 32.6722 149.875 32.4557C150.066 32.2393 150.155 31.9718 150.155 31.6407V8.52723C150.155 8.17066 150.066 7.89049 149.888 7.69947C149.735 7.49572 149.481 7.39384 149.149 7.39384Z" fill="white"/>
    <path fill-rule="evenodd" clip-rule="evenodd" d="M87.9969 32.2393C88.2771 32.5958 88.5955 32.7741 88.952 32.7741C89.2831 32.7741 89.5378 32.6722 89.7288 32.4557C89.8489 32.3197 89.9287 32.1635 89.9714 31.984C89.9967 31.878 90.009 31.7637 90.009 31.6407V8.52723C90.009 8.17066 89.9199 7.89049 89.7416 7.69947C89.5888 7.49572 89.3341 7.39384 89.003 7.39384C88.6973 7.39384 88.4426 7.49572 88.2516 7.71221C88.0606 7.9287 87.9714 8.19613 87.9714 8.52723V28.8518L72.4732 7.9287C72.2312 7.57213 71.9256 7.39384 71.5563 7.39384C71.1997 7.39384 70.9196 7.49572 70.7158 7.71221C70.5947 7.84087 70.5096 7.98752 70.4605 8.15483C70.4269 8.26905 70.4102 8.3929 70.4102 8.52723V31.628C70.4102 31.9846 70.4866 32.2647 70.6521 32.4685L69.0999 33.7297C68.5403 33.041 68.4102 32.2454 68.4102 31.628V8.52723C68.4102 7.73793 68.6728 6.96469 69.2594 6.34148C69.6201 5.9582 70.0358 5.71371 70.4605 5.56925V5.20508L70.6812 5.50311C70.9776 5.42592 71.2744 5.39384 71.5563 5.39384C72.6872 5.39384 73.5556 5.98559 74.1001 6.76496L85.9714 22.7916V8.52723C85.9714 7.80604 86.1795 7.03771 86.7519 6.38896C87.3755 5.68224 88.2086 5.39384 89.003 5.39384C89.7013 5.39384 90.6234 5.61258 91.2743 6.41336C91.8551 7.08317 92.009 7.88781 92.009 8.52723V31.6407C92.009 32.3619 91.8009 33.1302 91.2285 33.779C90.861 34.1955 90.4257 34.4619 89.9714 34.6132V34.912L89.7902 34.6673C89.5117 34.7411 89.2287 34.7741 88.952 34.7741C87.8199 34.7741 86.9709 34.1706 86.4243 33.4749L86.4067 33.4525L74.4605 17.3252V31.6407C74.4605 32.3619 74.2524 33.1302 73.68 33.779C73.0564 34.4857 72.2233 34.7741 71.4289 34.7741C70.6851 34.7741 69.7627 34.5454 69.0999 33.7297L70.6521 32.4685C70.8177 32.6722 71.0724 32.7741 71.4289 32.7741C71.7346 32.7741 71.9893 32.6722 72.1803 32.4557C72.3713 32.2393 72.4605 31.9718 72.4605 31.6407V11.2651L87.9969 32.2393ZM104.259 23.9999H116.357L110.321 10.2719L104.259 23.9999ZM110.317 15.2319L113.293 21.9999H107.329L110.317 15.2319ZM121.833 31.4242C121.897 31.5643 121.935 31.7044 121.935 31.8445C121.935 32.0992 121.833 32.3157 121.617 32.4939C121.4 32.6722 121.146 32.7614 120.865 32.7614C120.674 32.7614 120.496 32.6977 120.318 32.5831C120.14 32.4685 119.999 32.3029 119.91 32.0864L117.211 25.9101H103.444L100.706 32.0864C100.49 32.5322 100.159 32.7614 99.7129 32.7614C99.4328 32.7614 99.1908 32.6722 98.987 32.4939C98.7833 32.3157 98.6814 32.0864 98.6814 31.8063C98.6814 31.6407 98.7069 31.5006 98.7578 31.4115L109.124 8.13246C109.34 7.61033 109.722 7.35564 110.296 7.35564C110.55 7.35564 110.792 7.43204 111.021 7.57213C111.251 7.72494 111.416 7.90323 111.505 8.14519L121.833 31.4242ZM113.353 7.37814L123.659 30.6066C123.8 30.9212 123.935 31.3441 123.935 31.8445C123.935 32.7285 123.541 33.5002 122.888 34.0378C122.305 34.5179 121.599 34.7614 120.865 34.7614C120.197 34.7614 119.648 34.5299 119.236 34.2655C118.712 33.9283 118.313 33.4458 118.071 32.8725L115.902 27.9101H104.745L102.521 32.9289L102.505 32.9602C102.282 33.42 101.939 33.8904 101.423 34.2428C100.893 34.6049 100.297 34.7614 99.7129 34.7614C98.9668 34.7614 98.252 34.5083 97.67 33.9991C97.0153 33.4262 96.6814 32.6403 96.6814 31.8063C96.6814 31.5387 96.7084 31.0449 96.9533 30.5473L107.288 7.33814C107.515 6.80283 107.887 6.26904 108.47 5.88205C109.062 5.48912 109.708 5.35564 110.296 5.35564C110.299 5.35564 110.302 5.35564 110.306 5.35565L110.325 5.31189L110.344 5.356C110.999 5.36569 111.581 5.57017 112.064 5.86556L112.098 5.88614L112.131 5.90802C112.584 6.21038 113.072 6.67182 113.353 7.37814ZM148.131 8.52723C148.131 8.19613 148.22 7.9287 148.411 7.71221C148.589 7.49572 148.844 7.39384 149.149 7.39384C149.481 7.39384 149.735 7.49572 149.888 7.69947C150.066 7.89049 150.155 8.17066 150.155 8.52723V31.6407C150.155 31.7409 150.147 31.8353 150.131 31.9242C150.092 32.129 150.009 32.3048 149.875 32.4557C149.684 32.6722 149.43 32.7741 149.098 32.7741C148.772 32.7741 148.478 32.6251 148.216 32.327C148.192 32.2991 148.167 32.2698 148.143 32.2393L132.607 11.2651V31.628C132.607 31.9591 132.518 32.2265 132.327 32.443C132.136 32.6595 131.881 32.7614 131.575 32.7614C131.219 32.7614 130.964 32.6595 130.799 32.4557C130.633 32.252 130.557 31.9718 130.557 31.6152V8.5145C130.557 8.38018 130.573 8.25634 130.607 8.14212C130.656 7.9748 130.741 7.82814 130.862 7.69947C131.066 7.48298 131.346 7.3811 131.703 7.3811C132.012 7.3811 132.277 7.50621 132.497 7.75643C132.539 7.80491 132.58 7.85809 132.62 7.91596L148.131 28.8518V8.52723ZM146.131 22.7927V8.52723C146.131 7.81514 146.333 7.05714 146.89 6.41367C147.519 5.66775 148.381 5.39384 149.149 5.39384C149.848 5.39384 150.77 5.61257 151.421 6.41327C152.002 7.0831 152.155 7.88778 152.155 8.52723V31.6407C152.155 32.3619 151.947 33.1302 151.375 33.779C151.011 34.1916 150.58 34.4569 150.131 34.609V34.9109L149.948 34.6643C149.666 34.7402 149.379 34.7741 149.098 34.7741C147.966 34.7741 147.117 34.1706 146.571 33.4749L146.553 33.4525L134.607 17.3252V31.628C134.607 32.3491 134.399 33.1175 133.826 33.7663C133.203 34.473 132.37 34.7614 131.575 34.7614C130.832 34.7614 129.909 34.5327 129.246 33.7169C128.687 33.0282 128.557 32.2327 128.557 31.6152V8.5145C128.557 7.72519 128.819 6.95195 129.406 6.32874C129.767 5.94547 130.182 5.70098 130.607 5.55652V5.20508L130.82 5.49244C131.119 5.41376 131.418 5.3811 131.703 5.3811C132.834 5.3811 133.702 5.97279 134.246 6.75213L146.131 22.7927ZM155.656 20.0012C155.656 11.8415 162.282 5.21555 170.442 5.21555C178.588 5.21555 185.228 11.8402 185.228 20.0012C185.228 28.1608 178.602 34.7868 170.442 34.7868C162.282 34.7868 155.656 28.1608 155.656 20.0012ZM161.745 20.0012C161.745 24.7928 165.65 28.6983 170.442 28.6983C175.234 28.6983 179.139 24.7928 179.139 20.0012C179.139 15.2096 175.234 11.3041 170.442 11.3041C165.65 11.3041 161.745 15.2096 161.745 20.0012ZM157.656 20.0012C157.656 12.9461 163.387 7.21555 170.442 7.21555C177.484 7.21555 183.228 12.9461 183.228 20.0012C183.228 27.0562 177.497 32.7868 170.442 32.7868C163.387 32.7868 157.656 27.0562 157.656 20.0012ZM159.745 20.0012C159.745 25.8973 164.546 30.6983 170.442 30.6983C176.338 30.6983 181.139 25.8973 181.139 20.0012C181.139 14.105 176.338 9.30405 170.442 9.30405C164.546 9.30405 159.745 14.105 159.745 20.0012Z" fill="white"/>
    <path fill-rule="evenodd" clip-rule="evenodd" d="M47.134 40H50.247L42.0048 27.0337H47.3981V24.7586H40.5586L37.6663 20.2086H47.3971V17.9336H37.7138L49.3367 0H46.359L35.3704 16.8453L24.6095 0H21.4358L32.9022 17.9336H23.1924V20.2086H32.9996L30.0657 24.7586H23.1924L23.1914 27.0337H28.5988L20.2383 40H23.3256L31.7767 27.0337H38.8098L47.134 40ZM37.3493 24.7586L35.3199 21.5976L33.2596 24.7586H37.3493Z" fill="white"/>
</svg>
