<svg width="165" height="40" viewBox="0 0 165 40" fill="none" xmlns="http://www.w3.org/2000/svg">
    <g clip-path="url(#clip0_3829_64923)">
        <path fill-rule="evenodd" clip-rule="evenodd" d="M127.23 17.6221C126.738 20.8492 124.274 20.8492 121.89 20.8492H120.534L121.485 14.8241C121.542 14.4601 121.856 14.1918 122.226 14.1918H122.847C124.47 14.1918 126.002 14.1918 126.793 15.1163C127.266 15.6694 127.408 16.4892 127.23 17.6221ZM126.192 9.20312H117.202C116.588 9.20312 116.064 9.65039 115.968 10.2577L112.334 33.3094C112.262 33.7639 112.613 34.1753 113.074 34.1753H117.686C118.116 34.1753 118.483 33.8621 118.55 33.4371L119.58 26.9021C119.676 26.2949 120.2 25.8476 120.814 25.8476H123.659C129.58 25.8476 132.998 22.9817 133.892 17.3021C134.294 14.8181 133.908 12.8662 132.744 11.4997C131.466 9.99746 129.2 9.20312 126.192 9.20312Z" fill="white"/>
        <path fill-rule="evenodd" clip-rule="evenodd" d="M63.109 17.6221C62.6177 20.8492 60.153 20.8492 57.7696 20.8492H56.4132L57.3643 14.8241C57.4221 14.4601 57.7361 14.1918 58.1045 14.1918H58.7263C60.349 14.1918 61.8819 14.1918 62.6718 15.1163C63.1449 15.6694 63.2879 16.4892 63.109 17.6221ZM62.0718 9.20312H53.0815C52.4669 9.20312 51.9437 9.65039 51.8479 10.2577L48.2124 33.3094C48.1409 33.7639 48.4924 34.1753 48.9526 34.1753H53.2451C53.8597 34.1753 54.3833 33.728 54.4791 33.1211L55.4601 26.9021C55.5555 26.2949 56.0791 25.8476 56.6936 25.8476H59.5385C65.4597 25.8476 68.8773 22.9817 69.7706 17.3021C70.1726 14.8181 69.7873 12.8662 68.6239 11.4997C67.3446 9.99746 65.0791 9.20312 62.0718 9.20312Z" fill="white"/>
        <path fill-rule="evenodd" clip-rule="evenodd" d="M82.9409 25.8971C82.5249 28.3569 80.5722 30.0082 78.0815 30.0082C76.8335 30.0082 75.8335 29.6066 75.1915 28.8462C74.5549 28.0923 74.3149 27.0183 74.5169 25.8223C74.9042 23.3848 76.8882 21.6801 79.3409 21.6801C80.5635 21.6801 81.5555 22.0858 82.2109 22.8531C82.8709 23.626 83.1295 24.7072 82.9409 25.8971ZM88.9402 17.5185H84.6355C84.2662 17.5185 83.9529 17.7864 83.8949 18.1512L83.7055 19.3549L83.4049 18.9185C82.4729 17.5654 80.3949 17.1133 78.3202 17.1133C73.5642 17.1133 69.5015 20.7173 68.7109 25.7723C68.2995 28.2939 68.8835 30.7035 70.3135 32.3856C71.6269 33.931 73.5015 34.5743 75.7349 34.5743C79.5689 34.5743 81.6949 32.1117 81.6949 32.1117L81.5022 33.308C81.4309 33.7629 81.7822 34.1747 82.2429 34.1747H86.1195C86.7342 34.1747 87.2575 33.7278 87.3529 33.1205L89.6802 18.3843C89.7522 17.9294 89.4009 17.5185 88.9402 17.5185Z" fill="white"/>
        <path fill-rule="evenodd" clip-rule="evenodd" d="M147.061 25.8971C146.646 28.3569 144.693 30.0082 142.203 30.0082C140.954 30.0082 139.955 29.6066 139.312 28.8462C138.675 28.0923 138.436 27.0183 138.638 25.8223C139.025 23.3848 141.009 21.6801 143.462 21.6801C144.684 21.6801 145.677 22.0858 146.332 22.8531C146.991 23.626 147.25 24.7072 147.061 25.8971ZM153.061 17.5185H148.756C148.387 17.5185 148.073 17.7864 148.016 18.1512L147.827 19.3549L147.526 18.9185C146.593 17.5654 144.516 17.1133 142.441 17.1133C137.685 17.1133 133.623 20.7173 132.832 25.7723C132.421 28.2939 133.005 30.7035 134.434 32.3856C135.748 33.931 137.623 34.5743 139.856 34.5743C143.689 34.5743 145.815 32.1117 145.815 32.1117L145.623 33.308C145.551 33.7629 145.903 34.1747 146.364 34.1747H150.24C150.855 34.1747 151.378 33.7278 151.474 33.1205L153.801 18.3843C153.873 17.9294 153.521 17.5185 153.061 17.5185Z" fill="white"/>
        <mask id="mask0_3829_64923" style="mask-type:alpha" maskUnits="userSpaceOnUse" x="0" y="0" width="164" height="40">
            <path d="M0.304688 40.0003H163.777V0.332031H0.304688V40.0003Z" fill="white"/>
        </mask>
        <g mask="url(#mask0_3829_64923)">
            <path fill-rule="evenodd" clip-rule="evenodd" d="M111.87 17.5195H107.544C107.13 17.5195 106.743 17.7248 106.51 18.067L100.542 26.8577L98.0123 18.4105C97.8543 17.8819 97.3677 17.5195 96.8163 17.5195H92.563C92.049 17.5195 91.6877 18.0246 91.853 18.5107L96.6177 32.4953L92.1363 38.8185C91.7843 39.3147 92.1397 40.0011 92.7477 40.0011H97.0703C97.4803 40.0011 97.8637 39.8003 98.097 39.4633L112.487 18.6961C112.831 18.1991 112.476 17.5195 111.87 17.5195Z" fill="white"/>
            <path fill-rule="evenodd" clip-rule="evenodd" d="M158.137 9.83626L154.447 33.3094C154.375 33.7643 154.727 34.1753 155.187 34.1753H158.898C159.513 34.1753 160.036 33.728 160.132 33.1211L163.77 10.0694C163.841 9.61446 163.49 9.20312 163.029 9.20312H158.877C158.508 9.20312 158.194 9.47179 158.137 9.83626Z" fill="white"/>
            <path fill-rule="evenodd" clip-rule="evenodd" d="M17.3122 38.3661L18.5206 30.7031L18.5986 30.2784C18.6568 29.9092 18.8459 29.5714 19.1308 29.3282C19.4156 29.0849 19.7788 28.9508 20.1534 28.9508H21.113C22.7126 28.9508 24.182 28.7798 25.481 28.4429C26.8669 28.0837 28.0996 27.5241 29.1445 26.7811C30.2524 25.9932 31.1828 24.9746 31.9105 23.7544C32.6782 22.4671 33.2418 20.9172 33.5861 19.1484C33.8903 17.5863 33.9473 16.188 33.7562 14.9916C33.5538 13.7278 33.0669 12.6494 32.3093 11.7855C31.8499 11.2623 31.262 10.809 30.5622 10.438L30.5457 10.4292L30.5453 10.409C30.7897 8.84976 30.7804 7.54916 30.5174 6.42954C30.2532 5.30752 29.7182 4.29783 28.8806 3.34348C27.1453 1.36611 23.9889 0.363281 19.4996 0.363281H7.17032C6.75822 0.363281 6.35822 0.510757 6.04469 0.778635C5.73116 1.04652 5.52348 1.41864 5.45883 1.82591L0.325094 34.3807C0.278225 34.6776 0.363478 34.9794 0.559033 35.2073C0.754589 35.4364 1.03904 35.5678 1.33964 35.5678H8.98852L8.98165 35.6041L8.45638 38.935C8.41598 39.194 8.49032 39.4566 8.66045 39.6554C8.83052 39.8546 9.07825 39.9694 9.34005 39.9694H15.7554C16.1154 39.9694 16.4641 39.8404 16.7376 39.6065C17.0112 39.3726 17.193 39.0482 17.2491 38.693L17.3122 38.3661Z" fill="white"/>
            <path fill-rule="evenodd" clip-rule="evenodd" d="M12.917 10.4512C12.9982 9.93526 13.3292 9.51306 13.7749 9.29933C13.9777 9.20233 14.2039 9.14819 14.4411 9.14819H24.1053C25.2504 9.14819 26.3179 9.22333 27.2941 9.38053C27.5729 9.42539 27.8439 9.47706 28.1078 9.53566C28.3716 9.59426 28.6274 9.65933 28.8751 9.73206C28.9991 9.76799 29.1207 9.80599 29.2407 9.84599C29.7199 10.0052 30.1659 10.1927 30.5764 10.41C31.0605 7.32433 30.5733 5.22456 28.9041 3.32274C27.0666 1.229 23.747 0.332031 19.4997 0.332031H7.17038C6.30252 0.332031 5.56352 0.963545 5.42817 1.82092L0.294434 34.3757C0.19302 35.0181 0.689586 35.5987 1.33969 35.5987H8.95098L12.917 10.4512Z" fill="white"/>
            <path fill-rule="evenodd" clip-rule="evenodd" d="M30.5763 10.4102C30.5395 10.6457 30.4987 10.8853 30.4502 11.1322C28.8247 19.4801 23.2619 22.3661 16.1573 22.3661H12.5395C11.6716 22.3661 10.9387 22.998 10.8033 23.8554L8.42554 38.9306C8.33707 39.4922 8.7714 40.0005 9.33987 40.0005H15.7557C16.5149 40.0005 17.1613 39.4482 17.2797 38.6978L17.3427 38.3718L18.5512 30.708L18.6292 30.2845C18.7476 29.5342 19.3941 28.9819 20.1532 28.9819H21.1128C27.3282 28.9819 32.1949 26.4566 33.6171 19.154C34.211 16.1027 33.9039 13.5556 32.3326 11.7649C31.8575 11.2235 31.2659 10.7754 30.5763 10.4102Z" fill="white"/>
            <path fill-rule="evenodd" clip-rule="evenodd" d="M28.8723 9.73224C28.6246 9.6595 28.3688 9.5945 28.105 9.5359C27.8412 9.4773 27.57 9.42557 27.2913 9.38077C26.3151 9.22357 25.2476 9.14844 24.1026 9.14844H14.4384C14.2012 9.14844 13.9749 9.20257 13.7721 9.2995C13.3264 9.5133 12.9955 9.9355 12.9143 10.4514L10.8602 23.4753L10.8008 23.8555C10.9361 22.9981 11.669 22.3662 12.5369 22.3662H16.1547C23.2594 22.3662 28.8222 19.4802 30.4477 11.1322C30.4961 10.8854 30.5369 10.6458 30.5737 10.4102C30.1632 10.1928 29.7171 10.0054 29.238 9.84617C29.118 9.80617 28.9963 9.76824 28.8723 9.73224Z" fill="#121417"/>
        </g>
    </g>
    <defs>
        <clipPath id="clip0_3829_64923">
            <rect width="164" height="40" fill="white" transform="translate(0.28125)"/>
        </clipPath>
    </defs>
</svg>
