<svg width="97" height="40" viewBox="0 0 97 40" fill="none" xmlns="http://www.w3.org/2000/svg">
    <g clip-path="url(#clip0_3827_64894)">
        <path fill-rule="evenodd" clip-rule="evenodd" d="M96.2821 20.6391C96.2821 13.8124 92.9754 8.42578 86.6554 8.42578C80.3087 8.42578 76.4688 13.8124 76.4688 20.5858C76.4688 28.6124 81.0021 32.6658 87.5087 32.6658C90.6821 32.6658 93.0821 31.9458 94.8954 30.9324V25.5991C93.0821 26.5058 91.0021 27.0658 88.3621 27.0658C85.7754 27.0658 83.4821 26.1591 83.1887 23.0124H96.2287C96.2287 22.6658 96.2821 21.2791 96.2821 20.6391ZM83.1087 18.1058C83.1087 15.0924 84.9487 13.8391 86.6287 13.8391C88.2554 13.8391 89.9887 15.0924 89.9887 18.1058H83.1087Z" fill="white"/>
        <path fill-rule="evenodd" clip-rule="evenodd" d="M66.1744 8.42578C63.561 8.42578 61.881 9.65245 60.9477 10.5058L60.601 8.85245H54.7344V39.9458L61.401 38.5324L61.4277 30.9858C62.3877 31.6791 63.801 32.6658 66.1477 32.6658C70.921 32.6658 75.2677 28.8258 75.2677 20.3724C75.241 12.6391 70.841 8.42578 66.1744 8.42578ZM64.5744 26.7991C63.001 26.7991 62.0677 26.2391 61.4277 25.5458L61.401 15.6524C62.0944 14.8791 63.0544 14.3458 64.5744 14.3458C67.001 14.3458 68.681 17.0658 68.681 20.5591C68.681 24.1324 67.0277 26.7991 64.5744 26.7991Z" fill="white"/>
        <path fill-rule="evenodd" clip-rule="evenodd" d="M45.5625 6.85333L52.2558 5.41333V0L45.5625 1.41333V6.85333Z" fill="white"/>
        <path d="M52.2558 8.88086H45.5625V32.2142H52.2558V8.88086Z" fill="white"/>
        <path fill-rule="evenodd" clip-rule="evenodd" d="M38.3898 10.8525L37.9631 8.87916H32.2031V32.2125H38.8698V16.3992C40.4431 14.3458 43.1098 14.7192 43.9365 15.0125V8.87916C43.0831 8.55916 39.9631 7.97249 38.3898 10.8525Z" fill="white"/>
        <path fill-rule="evenodd" clip-rule="evenodd" d="M25.0529 3.09375L18.5462 4.48042L18.5195 25.8404C18.5195 29.7871 21.4795 32.6937 25.4262 32.6937C27.6129 32.6937 29.2129 32.2937 30.0929 31.8137V26.4004C29.2396 26.7471 25.0262 27.9737 25.0262 24.0271V14.5604H30.0929V8.88042H25.0262L25.0529 3.09375Z" fill="white"/>
        <path fill-rule="evenodd" clip-rule="evenodd" d="M7.02792 15.6524C7.02792 14.6124 7.88125 14.2124 9.29458 14.2124C11.3212 14.2124 13.8812 14.8258 15.9079 15.9191V9.65245C13.6946 8.77245 11.5079 8.42578 9.29458 8.42578C3.88125 8.42578 0.28125 11.2524 0.28125 15.9724C0.28125 23.3324 10.4146 22.1591 10.4146 25.3324C10.4146 26.5591 9.34792 26.9591 7.85458 26.9591C5.64125 26.9591 2.81458 26.0524 0.574583 24.8258V31.1724C3.05458 32.2391 5.56125 32.6924 7.85458 32.6924C13.4012 32.6924 17.2146 29.9458 17.2146 25.1724C17.1879 17.2258 7.02792 18.6391 7.02792 15.6524Z" fill="white"/>
    </g>
    <defs>
        <clipPath id="clip0_3827_64894">
            <rect width="96" height="40" fill="white" transform="translate(0.28125)"/>
        </clipPath>
    </defs>
</svg>
