<svg width="127" height="40" viewBox="0 0 127 40" fill="none" xmlns="http://www.w3.org/2000/svg">
    <path fill-rule="evenodd" clip-rule="evenodd" d="M35.5483 20.3738C35.5483 29.5958 28.0724 37.0718 18.8503 37.0718C9.62829 37.0718 2.15234 29.5958 2.15234 20.3738C2.15234 11.1517 9.62829 3.67578 18.8503 3.67578C28.0724 3.67578 35.5483 11.1517 35.5483 20.3738ZM20.6305 21.9128V21.9155V21.9182C24.6977 21.7357 27.7339 21.0269 27.7339 20.1786C27.7339 19.3303 24.7003 18.6216 20.6305 18.439V21.2095C20.5124 21.2202 19.8789 21.2739 18.6118 21.2739C17.5567 21.2739 16.7916 21.2283 16.5258 21.2095V18.4363C12.4507 18.6162 9.40639 19.3276 9.40639 20.1759C9.40639 21.0269 12.448 21.7357 16.5258 21.9155V21.9128C16.7889 21.9263 17.5326 21.9558 18.593 21.9558C19.9191 21.9558 20.5151 21.9209 20.6305 21.9128ZM20.6305 15.6712V18.1518L20.6332 18.1544C25.2399 18.3665 28.703 19.282 28.703 20.3746C28.703 21.4699 25.2399 22.3826 20.6332 22.5947V30.5464H16.5285V22.5947C11.9165 22.3799 8.44531 21.4672 8.44531 20.3719C8.44531 19.2766 11.9138 18.3638 16.5285 18.1518V15.6712H10.8507V11.8887H26.3084V15.6712H20.6305Z" fill="white"/>
    <path d="M49.7304 12.9226V16.9333H53.6284V19.9427H49.7036V26.0447C49.7036 27.3924 50.4472 28.0501 51.5371 28.0501C52.0821 28.0501 52.713 27.8783 53.2284 27.6206L54.2029 30.6004C53.2016 31.0004 52.3693 31.1722 51.3089 31.2018C48.2432 31.3172 46.2378 29.5695 46.2378 26.0447V19.9427H43.6016V16.9333H46.2378V13.2957L49.7304 12.9226ZM116.933 16.7454L117.191 18.3776C118.281 16.63 119.741 16.3722 121.175 16.3722C122.635 16.3722 124.039 16.944 124.812 17.7172L123.236 20.7534C122.52 20.1521 121.862 19.8353 120.716 19.8353C118.882 19.8353 117.191 20.8098 117.191 23.4165V30.8662H113.696V16.74L116.933 16.7454ZM108.367 22.1602C108.138 20.3266 106.705 19.4085 104.7 19.4085C102.81 19.4085 101.261 20.3266 100.745 22.1602H108.367ZM100.689 25.0541C100.917 26.8018 102.436 28.0635 104.901 28.0635C106.189 28.0635 107.881 27.5749 108.683 26.7454L110.917 28.9521C109.427 30.4984 106.992 31.2447 104.842 31.2447C99.972 31.2447 97.0754 28.2353 97.0754 23.7091C97.0754 19.4112 99.9989 16.3159 104.584 16.3159C109.312 16.3159 112.265 19.2393 111.72 25.0541H100.689ZM85.274 10.8125V18.6622C86.5358 17.0299 88.0821 16.5414 89.6875 16.5414C93.6982 16.5414 95.4754 19.2635 95.4754 23.4192V30.8689H91.9801V23.4487C91.9801 20.8689 90.6324 19.7816 88.7693 19.7816C86.7049 19.7816 85.274 21.5293 85.274 23.6501V30.8716H81.7787V10.8152L85.274 10.8125ZM75.9908 12.7615V16.7722H79.8888V19.7816H75.964V25.8836C75.964 27.2313 76.7103 27.889 77.7975 27.889C78.3425 27.889 78.9734 27.7172 79.4888 27.4595L80.4633 30.4393C79.462 30.8393 78.6297 31.0112 77.5693 31.0407C74.5036 31.1561 72.4982 29.4058 72.4982 25.8836V19.7816H69.862V16.7722H72.4982V13.1346L75.9908 12.7615ZM66.3345 22.1602C66.1063 20.3266 64.6727 19.4085 62.6673 19.4085C60.7774 19.4085 59.2284 20.3266 58.713 22.1602H66.3345ZM58.6566 25.0541C58.8848 26.8018 60.4042 28.0635 62.8687 28.0635C64.1573 28.0635 65.8485 27.5749 66.6512 26.7454L68.8848 28.9521C67.3949 30.4984 64.96 31.2447 62.8096 31.2447C57.9371 31.2447 55.0432 28.2353 55.0432 23.7091C55.0432 19.4112 57.9667 16.3159 62.5492 16.3159C67.2767 16.3159 70.2271 19.2393 69.6848 25.0541H58.6566Z" fill="white"/>
</svg>
